# xmcd
#
# Track frame offsets:
#	150
#	9774
#	29485
#	46176
#	58803
#	68429
#	82283
#	94534
#	107379
#	123903
#	141353
#	159186
#
# Disc length: 2256 seconds
#
# Revision: 0
# Processed by: cddbd v1.5.2PL0 Copyright (c) Steve Scherf et al.
# Submitted via: EZCDAudioConverter 7.1.5.1
#
DISCID=8d08ce0c
DTITLE=Roy Book Binder - Ragtime Millionaire 
DYEAR=1976
DGENRE=Blues
TTITLE0=King Edward Blues
TTITLE1=One Meat Ball
TTITLE2=Travelin' Man Blues
TTITLE3=Keep A Knockin'
TTITLE4=Wonder What's The Matter
TTITLE5=Long Tall Mama
TTITLE6=3 X 7
TTITLE7=Ragtime Millionaire
TTITLE8=C C and O Blues
TTITLE9=Stack O Lee
TTITLE10=Hesitation Blues
TTITLE11=Maybe It's The Blues
EXTD=
EXTT0=
EXTT1=
EXTT2=
EXTT3=
EXTT4=
EXTT5=
EXTT6=
EXTT7=
EXTT8=
EXTT9=
EXTT10=
EXTT11=
PLAYORDER=
